<svg xmlns="http://www.w3.org/2000/svg" xmlns:xlink="http://www.w3.org/1999/xlink"
     version="1.1" x="0px" y="0px" viewBox="0 0 100 125" enable-background="new 0 0 100 100"
     xml:space="preserve">
    <path d="M73.607,75.049l-3.04-25.951h-6.977v5.977H54.53v-5.977h-9.06v5.977H36.41v-5.977h-6.977l-3.041,25.951
     c-4.1,0.692-7.619,1.566-10.28,2.587l0.717,1.867c5.868-2.252,16.133-3.766,27.604-4.14v-7.763c0-3.068,2.497-5.565,5.566-5.565
     c3.068,0,5.565,2.497,5.565,5.565v7.763c11.471,0.374,21.735,1.888,27.605,4.14l0.717-1.867
     C81.227,76.615,77.706,75.741,73.607,75.049z M38.869,62.035h-2.834v-1.5h2.834V62.035z M63.966,62.035h-2.834v-1.5h2.834V62.035z
      M37.91,53.574h6.061v-5.977h12.06v5.977h6.061v-5.977h3.146L64.31,35.414h-5.099v5.099h-6.14v-5.099H51V20.496h-2v0.813
       c-4.353,3.111-6.258-1.479-11.072,2.034c5.456-0.646,6.331,4.925,11.072,4.026v8.045h-2.069v5.099H40.79v-5.099h-5.099
        l-0.928,12.184h3.146V53.574z M82.057,62.834v-2c-3.316,0-6.354,0.322-8.502,0.873l0.234,2.002
         C75.749,63.163,78.793,62.834,82.057,62.834z M26.445,61.707c-2.148-0.551-5.188-0.873-8.503-0.873v2
          c3.264,0,6.308,0.329,8.269,0.875L26.445,61.707z M50,63.535c-2.242,0-4.066,1.824-4.066,4.065v7.722
           C47.277,75.29,48.632,75.27,50,75.27c1.367,0,2.722,0.021,4.065,0.053v-7.722C54.065,65.359,52.241,63.535,50,63.535z"/>
    <text x="0" y="115" fill="#000000" font-size="5px" font-weight="bold" font-family="'Helvetica Neue', Helvetica, Arial-Unicode, Arial, Sans-serif">Created by Sergey Demushkin</text><text x="0" y="120" fill="#000000" font-size="5px" font-weight="bold" font-family="'Helvetica Neue', Helvetica, Arial-Unicode, Arial, Sans-serif">from the Noun Project</text></svg>