<?xml version="1.0" standalone="no"?>
<!DOCTYPE svg PUBLIC "-//W3C//DTD SVG 20010904//EN"
 "http://www.w3.org/TR/2001/REC-SVG-20010904/DTD/svg10.dtd">
<svg version="1.0" xmlns="http://www.w3.org/2000/svg"
 width="512.000000pt" height="512.000000pt" viewBox="0 0 512.000000 512.000000"
 preserveAspectRatio="xMidYMid meet">
<metadata>
Created by potrace 1.13, written by Peter Selinger 2001-2015
</metadata>
<g transform="translate(0.000000,512.000000) scale(0.100000,-0.100000)"
fill="#000000" stroke="none">
<path d="M4859 4855 c-723 -154 -1436 -492 -2106 -996 -82 -61 -152 -113 -158
-115 -5 -2 -57 37 -115 87 -274 237 -606 492 -900 688 -458 307 -565 353 -825
353 -153 1 -240 -14 -387 -62 -187 -63 -274 -128 -331 -248 -28 -59 -32 -78
-32 -153 0 -75 3 -92 30 -144 35 -69 90 -115 167 -140 183 -60 664 -288 947
-449 260 -148 642 -396 790 -512 2 -2 -68 -79 -154 -171 -385 -409 -694 -795
-984 -1228 -298 -445 -351 -568 -351 -820 0 -224 86 -514 184 -623 110 -121
276 -161 418 -100 73 31 117 88 162 209 49 133 170 407 253 573 255 509 612
1051 996 1513 l110 133 101 -93 c146 -133 453 -441 591 -592 353 -386 659
-770 1050 -1315 213 -297 249 -345 299 -398 70 -73 97 -49 76 69 -164 940
-666 1901 -1438 2753 -64 70 -121 134 -125 140 -14 18 259 278 568 540 274
232 633 508 1010 776 301 214 415 306 415 336 0 33 -66 31 -261 -11z"/>
</g>
</svg>
