<svg xmlns="http://www.w3.org/2000/svg" xmlns:xlink="http://www.w3.org/1999/xlink" version="1.1" x="0px" y="0px" viewBox="0 0 100 125"
     style="enable-background:new 0 0 100 100;" xml:space="preserve">
    <path d="M79,36.4c4.7-4.7,5.9-12.1,2.4-18.2c-3.5-6-10.5-8.7-16.9-7C62.8,4.8,56.9,0.1,
50,0.1c-6.9,0-12.8,4.7-14.5,11.2  c-6.4-1.7-13.4,1-16.9,7c-3.5,6-2.3,13.4,2.4,18.1c-4.7,4.7-5.9,12.1-2.4,18.1c2.8,4.8,7.8,7.5,
13.1,7.5c1.3,0,2.6-0.2,3.9-0.5  c1.5,5.6,6.1,9.9,11.9,10.9v6.4c-7.2-6.6-19.5-6.7-20-6.8l-2.7,0l0,2.7c0,0.6,0.2,15.5,9,22.1c2.
7,2,5.9,3,9.5,3c2,0,4.2-0.3,6.5-1  l0.4-0.1l0.4,0.1c2.3,0.7,4.5,1,6.5,1c3.6,0,6.8-1,9.5-3c8.8-6.6,9-21.5,9-22.1l0-2.7l-2.7,0c
-0.6,0-12.8,0.2-20,6.7v-6.3  c5.7-1,10.4-5.3,11.9-10.9c1.3,0.3,2.6,0.5,3.9,0.5c5.2,0,10.3-2.7,13.1-7.5C84.9,48.5,83.7,41.1,79,
36.4z M70.9,16.4  c2.5,0.7,4.6,2.3,5.9,4.5c2.5,4.4,1.2,10-2.8,12.8c-0.1,0-0.2,0.1-0.4,0.1l-13.8,0c-0.3-1.9-1.1-3.6-2.3-5l6.9-11.9
 C66.5,16,68.8,15.8,70.9,16.4z M45.3,35.4c0-2.6,2.1-4.7,4.7-4.7c2.6,0,4.7,2.1,4.7,4.7c0,2.6-2.1,4.7-4.7,4.7
 C47.4,40,45.3,37.9,45.3,35.4z M50,5.4c5.1,0,9.2,3.9,9.7,8.9c0,0.1-0.1,0.3-0.1,0.4l-6.5,11.2c-1-0.3-2-0.5-3.1-0.5
  c-1,0-2,0.2-2.9,0.4l-6.7-11.6C40.8,9.3,45,5.4,50,5.4z M23.2,20.9c1.3-2.2,3.4-3.9,5.9-4.5c2.2-0.6,4.5-0.4,6.6,0.6
  c0.1,0.1,0.1,0.1,0.2,0.2l6.7,11.5c-1.2,1.4-2.1,3.1-2.4,4.9l-14.3,0C21.9,30.8,20.7,25.2,23.2,20.9z M29.1,56.4
   c-2.5-0.7-4.6-2.3-5.9-4.5c-2.5-4.4-1.3-9.9,2.8-12.8c0.1,0,0.3-0.1,0.4-0.1l14.4,0c0.6,1.4,1.4,2.7,2.5,3.7l-7.6,13.2
     C33.5,56.8,31.3,57,29.1,56.4z M46.7,94.2c-4.1,0.9-7.3,0.4-9.9-1.6c-4.7-3.5-6.2-10.9-6.7-15c4.6,0.5,11.7,2.2,15,6.7
      C47.1,86.9,47.6,90.1,46.7,94.2z M54.8,84.3c3.5-4.7,10.9-6.2,15-6.7c-0.5,4.6-2.2,11.7-6.7,15c-2.6,1.9-5.8,2.5-9.9,1.6
        C52.3,90.1,52.9,86.9,54.8,84.3z M50,67.4c-5.1,0-9.3-3.9-9.7-8.9c0-0.1,0.1-0.2,0.1-0.3l7.5-13c0.7,0.1,1.4,0.2,2.1,0.2
         c0.6,0,1.3-0.1,1.9-0.2l7.8,13.5C59.2,63.6,55,67.4,50,67.4z M76.8,51.9c-1.3,2.2-3.4,3.9-5.9,4.5c-2.2,0.6-4.5,0.4-6.6-0.6
         c-0.1-0.1-0.2-0.2-0.3-0.3l-7.4-12.8c1.1-1,2-2.2,2.6-3.7l14.9,0C78.1,42,79.3,47.5,76.8,51.9z"/><text x="0" y="115" fill="#000000" font-size="5px" font-weight="bold" font-family="'Helvetica Neue', Helvetica, Arial-Unicode, Arial, Sans-serif">Created by Anton Gajdosik</text><text x="0" y="120" fill="#000000" font-size="5px" font-weight="bold" font-family="'Helvetica Neue', Helvetica, Arial-Unicode, Arial, Sans-serif">from the Noun Project</text></svg>