<?xml version="1.0" encoding="iso-8859-1"?>
<!-- Generator: Adobe Illustrator 18.0.0, SVG Export Plug-In . SVG Version: 6.00 Build 0)  -->
<!DOCTYPE svg PUBLIC "-//W3C//DTD SVG 1.1//EN" "http://www.w3.org/Graphics/SVG/1.1/DTD/svg11.dtd">
<svg version="1.1" id="Capa_1" xmlns="http://www.w3.org/2000/svg" xmlns:xlink="http://www.w3.org/1999/xlink" x="0px" y="0px"
	 viewBox="0 0 457.783 457.783" style="enable-background:new 0 0 457.783 457.783;" xml:space="preserve">
<g id="XMLID_9_">
	<path id="XMLID_10_" d="M438.936,437.563h-4.918c-47.002-31.113-45.736-30.887-51.942-32.572
		c0.536-15.871,2.952-30.293,10.28-47.318c8.793-19.1,20.922-31.351,27.306-34.848c1.999-1.08,2.743-3.576,1.663-5.574
		c-1.08-1.999-3.576-2.743-5.575-1.663c0,0-11.215,5.367-22.449,18.402c-4.601,5.035-9.133,11.809-12.61,17.711
		c-10.571,18.894-14.648,35.061-17.279,54.33c-4.395,1.742-2.338,0.639-46.301,31.533H214.497c-5.584,0-10.11,4.527-10.11,10.11
		c0,5.583,4.526,10.11,10.11,10.11h224.439c5.583,0,10.11-4.527,10.11-10.11C449.046,442.09,444.519,437.563,438.936,437.563z"/>
	<circle id="XMLID_1043_" cx="89.016" cy="37.641" r="37.641"/>
	<path id="XMLID_1049_" d="M248.061,276.983l4.065-6.109l43.029-3.586c0.189,0.27,0.391,0.533,0.632,0.774
		c26.709,26.709,24.711,24.84,25.737,25.436c0.796,0.926,2.411,2.94,4.362,6.139c2.182,3.578,6.848,4.705,10.421,2.526
		c3.576-2.18,4.706-6.846,2.526-10.421c-1.687-2.767-5.929-9.195-8.738-10.782v-41.493c0-2.311-1.392-4.395-3.529-5.28
		c-2.135-0.885-4.594-0.397-6.228,1.239l-8.468,8.468l-39.6-3.3l19.759-29.697c1.508-2.267,1.207-5.283-0.717-7.207l-39.979-39.98
		c-1.838-1.838-4.662-2.176-6.887-0.893c-0.845-7.032-3.951-13.842-9.336-19.227c-7.512-7.514-18.154-10.848-28.55-9.129
		c-3.417-1.746-7.439-2.355-11.474-1.448l-57.579,12.893l-39.939-38.264l39.446,21.81l-4.198-21.038
		c-2.2-11.114-11.948-19.148-23.279-19.148c-14.591,0-24.854,0-41.049,0c-11.354,0-21.074,8.011-23.279,19.148L8.929,291.736
		c-0.586,2.961,0.186,6.029,2.101,8.363c1.915,2.334,4.777,3.696,7.796,3.696c5.79,0,13.307,0,21.896,0v131.745
		c0,12.037,9.758,21.795,21.795,21.795s21.795-9.757,21.795-21.795V303.796c3.134,0,6.276,0,9.41,0v131.745
		c0,12.037,9.758,21.795,21.795,21.795s21.795-9.757,21.795-21.795V303.796c8.591,0,16.108,0,21.896,0c3.021,0,5.883-1.354,7.8-3.69
		c1.917-2.335,2.684-5.407,2.098-8.37l-19.041-96.201c-12.194,2.731-8.499,1.903-17.265,3.866
		c-9.625,2.155-19.205-2.252-24.086-10.218l-34.742-56.906l46.542,44.589c4.125,3.952,9.953,5.574,15.527,4.328l43.495-9.74
		c0.819,5.698,3.137,11.22,6.953,15.923c2.498,3.079,5.569,5.746,9.221,7.829l-17.668,11.755c-4.773,3.176-7.837,8.271-8.404,13.976
		c-0.567,5.706,1.433,11.303,5.486,15.356l43.605,43.605C227.259,288.433,241.418,286.968,248.061,276.983z M201.687,177.019
		c-2.656-2.656-4.048-6.095-4.211-9.581l5.067-1.134c6.884-1.542,11.855-7.044,13.054-13.57c2.423,0.626,4.717,1.87,6.61,3.764
		c5.72,5.721,5.554,14.967,0,20.522C216.566,182.658,207.335,182.668,201.687,177.019z"/>
	<path id="XMLID_1050_" d="M335.045,321.485c2.048,7.437,3.386,15.513,3.982,24.003c0.279,3.997,3.61,7.052,7.556,7.052
		c0.178,0,0.357-0.006,0.538-0.019c4.177-0.292,7.327-3.916,7.033-8.094c-0.664-9.49-2.174-18.563-4.487-26.967
		c-1.111-4.038-5.284-6.41-9.323-5.299C336.306,313.273,333.934,317.448,335.045,321.485z"/>
	<path id="XMLID_1051_" d="M346.965,363.268c-4.149-0.35-7.836,2.758-8.182,6.932c-0.263,3.171-0.615,6.426-1.048,9.676
		c-0.604,4.538,2.922,8.585,7.526,8.585c3.742,0,6.999-2.771,7.506-6.582c0.466-3.499,0.845-7.008,1.128-10.429
		C354.242,367.276,351.138,363.613,346.965,363.268z"/>
</g>
<g>
</g>
<g>
</g>
<g>
</g>
<g>
</g>
<g>
</g>
<g>
</g>
<g>
</g>
<g>
</g>
<g>
</g>
<g>
</g>
<g>
</g>
<g>
</g>
<g>
</g>
<g>
</g>
<g>
</g>
</svg>
